<svg id="Layer_1" enable-background="new 0 0 512 512" height="512" viewBox="0 0 512 512" width="512" xmlns="http://www.w3.org/2000/svg"><g><g><g><g id="XMLID_1663_"><g id="XMLID_1664_"><g id="XMLID_1862_"><g id="XMLID_1863_"><g id="XMLID_1870_"><g id="XMLID_1872_"><g id="XMLID_1873_"><g id="XMLID_1874_"><g id="XMLID_1875_"><g id="XMLID_1876_"><g id="XMLID_1877_"><g id="XMLID_1878_"><g id="XMLID_1900_"><g id="XMLID_1901_"><g><path d="m512 256c0 63.12-22.85 120.91-60.72 165.54-46.96 55.34-117.02 44.874-195.28 44.874s-148.32 10.466-195.28-44.874c-37.87-44.63-60.72-102.42-60.72-165.54 0-141.38 114.62-256 256-256s256 114.62 256 256z" fill="#a7fff1"/></g></g></g></g></g></g></g></g></g></g></g></g></g></g></g></g></g><path d="m509.788 222.286-172.919-172.918-178.405 150.416 33.041 33.242c5.139 9.242 18.297 17.032 23.958 22.974l-5.772 43.73-148.971 121.81c46.96 55.34 117.02 44.874 195.28 44.874s148.32 10.466 195.28-44.874c37.87-44.63 60.72-102.42 60.72-165.54 0-11.43-.76-22.681-2.212-33.714z" fill="#00e4ef"/><g><path d="m201.155 243.771h109.691v116.327h-109.691z" fill="#f7b279"/><path d="m256 243.774h54.845v116.327h-54.845z" fill="#e59863"/><path d="m355.534 456.263h-199.071l32.43-139.398h136.342z" fill="#ffd4a6"/><path d="m325.235 316.865 30.302 139.394h-99.538v-139.394z" fill="#f7b279"/><g><path d="m347.305 133.251c-3.857-58.558-51.224-80.199-91.305-80.199s-87.448 21.641-91.305 80.199c-10.365 2.005-17.727 15.599-16.568 26.591l1.777 25.014c1.216 11.543 11.362 19.969 22.544 18.715l1.928-.209c22.904 61.503 58.824 67.916 81.624 71.517 22.8-3.601 58.72-10.013 81.625-71.517l1.929.209c11.181 1.254 21.328-7.172 22.544-18.715l1.776-25.014c1.158-10.991-6.204-24.586-16.569-26.591z" fill="#ffd4a6"/><path d="m363.873 159.842-1.776 25.014c-1.216 11.543-11.362 19.969-22.544 18.715l-1.929-.209c-7.828 20.995-17.167 35.578-26.98 45.809-18.924 19.742-39.624 23.333-54.644 25.708v-221.827c40.081 0 87.448 21.641 91.305 80.199 10.365 2.005 17.727 15.6 16.568 26.591z" fill="#f7b279"/><g><g><path d="m258.767 22.676c-104.449 0-108.179 69.443-98.259 103.928l14.824 46.115 18.244-58.302s28.786 16.097 64.889 6.519c23.04-6.113 42.884-9.072 60.185-2.701l18.021 54.484 13.809-46.115c9.919-34.486 7.687-103.928-91.713-103.928z" fill="#494949"/></g></g><g><g><path d="m350.48 126.6-13.81 46.12-18.02-54.49c-17.3-6.37-37.15-3.41-60.19 2.7-.82.22-1.64.42-2.46.61v-98.84c.92-.01 1.84-.02 2.77-.02 99.4 0 101.63 69.44 91.71 103.92z" fill="#2d2d2d"/></g></g><g><g><path d="m218.72 198.89h-17.216c-14.395 0-26.172-11.778-26.172-26.172 0-14.395 11.777-26.172 26.172-26.172h17.216c14.395 0 26.172 11.777 26.172 26.172 0 14.395-11.778 26.172-26.172 26.172z" fill="#fff"/></g><g><path d="m310.498 198.89h-17.216c-14.395 0-26.172-11.778-26.172-26.172 0-14.395 11.778-26.172 26.172-26.172h17.216c14.395 0 26.172 11.777 26.172 26.172 0 14.395-11.777 26.172-26.172 26.172z" fill="#f1f4f6"/></g></g></g><path d="m451.28 421.54c-46.96 55.34-117.02 90.46-195.28 90.46s-148.32-35.12-195.28-90.46l6.11-62.99c2.29-23.65 22.16-41.68 45.92-41.68h88.4l54.85 69.69 54.85-69.69h88.4c23.76 0 43.63 18.03 45.92 41.68z" fill="#ff4d05"/><path d="m451.28 421.54c-46.96 55.34-117.02 90.46-195.28 90.46v-125.44l54.85-69.69h88.4c23.76 0 43.63 18.03 45.92 41.68z" fill="#c30047"/><path d="m201.155 289.503-53.148 27.362 41.116 107.568 66.877-37.868z" fill="#fff"/><path d="m310.845 289.503 53.148 27.362-41.116 107.568-66.877-37.868z" fill="#daeaec"/></g></g></svg>